PathFileType	4	(X/Y/Z)	OpenSim_Sub02_CSStiffKnee_Accel.trc
DataRate	CameraRate	NumFrames	NumMarkers	Units	OrigDataRate	OrigDataStartFrame	OrigNumFrames
100	100	17	8	m	100	6030	6891
Frame#	Time	torso_imu_offset_imu	pelvis_imu_offset_imu	tibia_r_imu_offset_imu	femur_r_imu_offset_imu	tibia_l_imu_offset_imu	femur_l_imu_offset_imu	toes_r_imu_offset_imu	toes_l_imu_offset_imu
				X1	Y1	Z1	X2	Y2	Z2	X3	Y3	Z3	X4	Y4	Z4	X5	Y5	Z5	X6	Y6	Z6	X7	Y7	Z7	X8		Y8	Z8	

6030	60.29000000	8.79721018	-1.43429236	6.16869797	9.03954044	0.09290271	3.29388172	10.88728136	0.56460470	1.73632426	9.60105190	-3.15281840	0.47949442	11.69563457	-8.70485460	7.96912906	8.70397203	0.50317584	-1.04107665	5.21987573	0.28949145	9.01047449	42.21538443	-1.82240279	5.88902091
6031	60.30000000	8.73559047	-1.43128723	6.32245183	9.17835455	0.05034032	3.00195075	11.13718828	-0.29145121	2.01992251	9.80794729	-2.92135967	1.15548018	10.54641772	-12.03330070	10.53548060	8.68342856	0.46339683	-1.53785481	5.10851240	0.25874224	9.17999111	20.81474872	-0.27328748	8.14025070
6032	60.31000000	8.58573779	-1.47426853	6.53742783	9.16026831	0.33712893	2.78382343	11.40988915	-1.26382280	2.49478034	10.00007628	-2.62826069	1.53228880	7.46402740	-15.80430714	9.09223899	8.58671473	-0.23869403	-0.20015502	5.22092976	0.18816135	9.16991918	-1.17227624	-7.05100127	10.88569035
6033	60.32000000	8.12648180	-1.48558429	6.63474195	9.04301740	0.77065395	2.98623631	11.33964563	-2.23815190	2.88436646	9.74903352	-2.49117221	1.36988792	1.03102824	-15.61823323	5.65257821	8.95948479	-1.70634101	1.28295602	5.10070895	0.44284811	9.22962361	2.55785707	-3.98118387	10.72403205
6034	60.33000000	7.59789479	-1.54579883	6.92249957	9.01062471	0.97502477	3.28691621	11.12710039	-3.25973592	2.93582847	9.21382932	-2.60773946	1.17080794	-0.69995594	-8.54372658	5.28760812	10.66179547	-3.83626472	0.73518054	4.83563032	0.51105199	9.70162901	4.60204868	3.20606514	11.79062707
6035	60.34000000	7.66639092	-1.32347253	7.36970368	9.01758053	1.06801562	3.58831007	11.85420955	-4.11352251	2.75606628	8.69891287	-2.77730877	1.37534268	4.46082529	-0.07616515	5.40566134	11.43150264	-5.46916697	-0.75158731	4.71585267	0.22390064	10.15656459	2.74433107	3.09865107	11.52495067
6036	60.35000000	8.15233605	-0.75585362	7.53353763	9.14086052	1.00822026	3.99793351	13.85040497	-4.66557384	2.61515357	8.43226154	-3.03184186	1.84450167	9.79633355	0.68549562	0.21391976	10.48149971	-6.53116078	-2.33006406	3.85604795	-0.39310613	11.26735069	2.92984165	2.83758345	11.36145594
6037	60.36000000	8.26349755	-0.25752168	7.54039316	9.18211349	0.54953915	4.47426701	16.10665911	-4.62874641	2.22943982	8.56636568	-3.23264557	2.32593902	13.78006797	-0.08235078	-1.73023966	11.99275162	-5.78125451	-3.78705421	3.47434348	-0.72680185	11.82547977	5.00572978	4.68669626	12.62493669
6038	60.37000000	7.95408330	0.17415827	7.58250230	9.00138968	-0.45394283	4.88601278	17.41110530	-4.12652237	1.32643228	8.85780767	-3.07712368	2.90955153	13.69903763	-1.90700456	1.64318098	11.65739515	-4.63727054	-3.36906716	2.81286397	-0.67506012	11.90484023	5.17745957	1.29780753	12.19617082
6039	60.38000000	7.57612703	0.53617267	7.56492766	8.73351928	-1.38074583	5.15252664	17.52998350	-3.17493840	1.03505748	9.46626091	-2.97484084	3.45182289	10.68711897	-6.13666246	2.54270333	10.30075811	-1.22606475	-2.27682015	3.36007018	-1.87073080	11.97752737	4.05648978	1.04629311	12.05495863
6040	60.39000000	7.39120904	0.84299020	7.54308231	8.59522800	-2.21171787	5.26160246	16.72345123	-1.00228378	1.96423037	10.24586971	-3.09398773	3.36641381	8.05105682	-7.70011519	2.00589126	9.26807065	2.06584472	-1.14368303	4.42906666	-3.75269176	11.22438417	4.11374939	-0.14759776	12.11921245
6041	60.40000000	7.34427654	0.98377561	7.49513098	8.43655790	-2.64302336	5.00684676	15.02229831	0.70549531	2.57912763	11.01854733	-2.36707744	3.50510713	7.04310433	-4.29397641	3.46980613	8.93859038	3.39804984	0.00010883	7.34269829	-4.30174074	11.07180619	4.10714806	-1.07029688	11.95883770
6042	60.41000000	7.49084749	0.99657755	7.38761630	8.61174080	-2.51730655	4.67397855	11.94823036	1.87016822	3.56193724	11.67551422	-0.09484687	4.49876529	8.71883685	-0.20076448	2.49897392	9.26299014	3.31641072	0.11729620	10.63464885	-4.64972751	11.44368886	3.87671974	0.06371279	11.92292233
6043	60.42000000	7.99415198	1.03814289	7.36667994	9.09883911	-1.90722518	4.31114723	8.69919150	3.66269993	3.80340221	12.56996761	2.35591501	4.66551467	11.05849061	1.53372317	1.40112578	8.49871549	1.52836665	-0.32720922	11.82870069	0.39880252	11.95932474	3.14500392	0.99553443	12.16312368
6044	60.43000000	8.77964250	1.02206839	7.45885186	9.61280517	-1.28324331	3.99119105	6.10025392	5.92183751	2.91340667	13.13988928	3.32677953	3.36517338	11.58170475	0.45166726	0.57001401	9.48205457	-0.55614675	-1.58612457	14.40461945	6.18923177	18.60451466	3.58999584	1.61264642	12.11394364
6045	60.44000000	9.59255627	0.94921842	7.62739429	10.15942652	-0.96330775	3.65173128	3.82323732	8.76064407	1.30390864	13.34068093	3.51184071	2.18138369	11.25806395	-2.27088826	-0.36386298	10.62702077	-2.17760354	-3.30340589	7.21397948	-4.24150505	28.36167538	3.92624120	1.58695540	12.02390951
6046	60.45000000	10.18592284	0.78283159	7.74382384	10.95987620	-0.58743557	3.65914106	2.93358829	12.02907069	-0.99235491	13.75062949	2.23405633	1.11550099	10.61159542	-5.22483914	-0.05860314	10.55503110	-3.23268418	-4.55475199	-0.45047665	-14.62276305	24.32988727	4.03823505	1.17225499	11.93056493
